<svg xmlns="http://www.w3.org/2000/svg" xmlns:xlink="http://www.w3.org/1999/xlink" width="337.59" height="87.11" viewBox="0 0 337.59 87.11"><defs><style>.cls-1{fill:url(#linear-gradient);}.cls-2{fill:#fff;}.cls-3{fill:url(#linear-gradient-2);}.cls-4{fill:url(#linear-gradient-3);}.cls-5{fill:url(#linear-gradient-4);}.cls-6{fill:url(#linear-gradient-5);}</style><linearGradient id="linear-gradient" x1="23.91" y1="43.56" x2="73.33" y2="43.56" gradientUnits="userSpaceOnUse"><stop offset="0" stop-color="#02354a"/><stop offset="0" stop-color="#fee670"/><stop offset="1" stop-color="#ff9629"/></linearGradient><linearGradient id="linear-gradient-2" x1="84" y1="43.56" x2="133.41" y2="43.56" xlink:href="#linear-gradient"/><linearGradient id="linear-gradient-3" x1="144.09" y1="43.56" x2="193.5" y2="43.56" xlink:href="#linear-gradient"/><linearGradient id="linear-gradient-4" x1="204.17" y1="43.56" x2="253.59" y2="43.56" xlink:href="#linear-gradient"/><linearGradient id="linear-gradient-5" x1="264.26" y1="43.56" x2="313.68" y2="43.56" xlink:href="#linear-gradient"/></defs><g id="Content"><path class="cls-1" d="M33.89,67.1a.92.92,0,0,1-.52-.17.87.87,0,0,1-.34-.86l2.73-15.94L24.17,38.83a.87.87,0,0,1,.49-1.49l16-2.33L47.83,20.5a.87.87,0,0,1,1.57,0L56.56,35l16,2.33a.88.88,0,0,1,.7.59.86.86,0,0,1-.22.9L61.47,50.13l2.74,15.94a.88.88,0,0,1-.35.86.87.87,0,0,1-.51.17,1,1,0,0,1-.41-.1L48.62,59.47,34.29,67A.91.91,0,0,1,33.89,67.1Z"/><path class="cls-2" d="M48.62,20.89,56,35.81,72.45,38.2,60.53,49.82l2.82,16.4L48.62,58.48,33.89,66.22l2.81-16.4L24.78,38.2l16.47-2.39,7.37-14.92m0-1.75a1.75,1.75,0,0,0-1.57,1l-7,14.1L24.53,36.47a1.76,1.76,0,0,0-1,3l11.26,11-2.66,15.5a1.76,1.76,0,0,0,.7,1.71,1.73,1.73,0,0,0,1,.33,1.65,1.65,0,0,0,.81-.2l13.92-7.32,13.91,7.32a1.71,1.71,0,0,0,.82.2,1.74,1.74,0,0,0,1.72-2l-2.66-15.5,11.26-11a1.76,1.76,0,0,0-1-3L57.14,34.21l-7-14.1a1.77,1.77,0,0,0-1.57-1Z"/><path class="cls-3" d="M123.44,67.1A1,1,0,0,1,123,67l-14.32-7.53L94.38,67a.91.91,0,0,1-.4.1.87.87,0,0,1-.52-.17.9.9,0,0,1-.35-.86l2.74-15.94L84.26,38.83a.87.87,0,0,1,.49-1.49l16-2.33,7.16-14.51a.88.88,0,0,1,.79-.49h0a.87.87,0,0,1,.78.49L116.65,35l16,2.33a.87.87,0,0,1,.49,1.49l-11.59,11.3,2.74,15.94a.9.9,0,0,1-.35.86A.87.87,0,0,1,123.44,67.1Z"/><path class="cls-2" d="M108.71,20.89l7.36,14.92,16.47,2.39L120.62,49.82l2.82,16.4-14.73-7.74L94,66.22l2.81-16.4L84.87,38.2l16.47-2.39,7.37-14.92m0-1.75a1.75,1.75,0,0,0-1.57,1l-7,14.1L84.62,36.47a1.76,1.76,0,0,0-1,3l11.26,11-2.66,15.5a1.76,1.76,0,0,0,.7,1.71A1.73,1.73,0,0,0,94,68a1.7,1.7,0,0,0,.81-.2l13.92-7.32,13.91,7.32a1.76,1.76,0,0,0,1.84-.13,1.76,1.76,0,0,0,.7-1.71l-2.66-15.5,11.26-11a1.76,1.76,0,0,0-1-3l-15.56-2.26-7-14.1a1.75,1.75,0,0,0-1.56-1Z"/><path class="cls-4" d="M183.52,67.1a.91.91,0,0,1-.4-.1l-14.33-7.53L154.47,67a1,1,0,0,1-.41.1.87.87,0,0,1-.51-.17.9.9,0,0,1-.35-.86l2.74-15.94-11.59-11.3a.87.87,0,0,1,.48-1.49l16-2.33L168,20.5a.87.87,0,0,1,1.57,0L176.74,35l16,2.33a.87.87,0,0,1,.49,1.49l-11.59,11.3,2.74,15.94a.9.9,0,0,1-.35.86A.87.87,0,0,1,183.52,67.1Z"/><path class="cls-2" d="M168.79,20.89l7.37,14.92,16.47,2.39L180.71,49.82l2.81,16.4-14.73-7.74-14.73,7.74,2.82-16.4L145,38.2l16.47-2.39,7.36-14.92m0-1.75a1.77,1.77,0,0,0-1.57,1l-6.95,14.1-15.56,2.26a1.76,1.76,0,0,0-1,3l11.26,11-2.66,15.5a1.76,1.76,0,0,0,.7,1.71,1.76,1.76,0,0,0,1.84.13l13.91-7.32,13.92,7.32a1.7,1.7,0,0,0,.81.2,1.73,1.73,0,0,0,1-.33,1.76,1.76,0,0,0,.7-1.71l-2.66-15.5,11.26-11a1.76,1.76,0,0,0-1-3l-15.56-2.26-7-14.1a1.75,1.75,0,0,0-1.57-1Z"/><path class="cls-5" d="M214.15,67.1a.87.87,0,0,1-.51-.17.88.88,0,0,1-.35-.86L216,50.13l-11.59-11.3a.86.86,0,0,1-.22-.9.87.87,0,0,1,.7-.59l16-2.33L228.1,20.5a.86.86,0,0,1,.78-.49.88.88,0,0,1,.79.49L236.83,35l16,2.33a.9.9,0,0,1,.71.59.88.88,0,0,1-.22.9l-11.59,11.3,2.73,15.94a.87.87,0,0,1-.34.86.92.92,0,0,1-.52.17,1,1,0,0,1-.41-.1l-14.32-7.53L214.56,67A1,1,0,0,1,214.15,67.1Z"/><path class="cls-2" d="M228.88,20.89l7.37,14.92,16.47,2.39L240.8,49.82l2.81,16.4-14.73-7.74-14.73,7.74L217,49.82,205.05,38.2l16.47-2.39,7.36-14.92m0-1.75a1.77,1.77,0,0,0-1.57,1l-6.95,14.1L204.8,36.47a1.76,1.76,0,0,0-1,3l11.26,11-2.66,15.5a1.74,1.74,0,0,0,1.72,2,1.71,1.71,0,0,0,.82-.2l13.91-7.32,13.92,7.32a1.65,1.65,0,0,0,.81.2,1.73,1.73,0,0,0,1-.33,1.76,1.76,0,0,0,.7-1.71l-2.66-15.5,11.26-11a1.76,1.76,0,0,0-1-3l-15.56-2.26-7-14.1a1.75,1.75,0,0,0-1.57-1Z"/><path class="cls-6" d="M303.7,67.1a1,1,0,0,1-.41-.1L289,59.47,274.65,67a1,1,0,0,1-.41.1.87.87,0,0,1-.51-.17.88.88,0,0,1-.35-.86l2.73-15.94-11.58-11.3a.86.86,0,0,1-.22-.9.87.87,0,0,1,.7-.59L281,35l7.16-14.51A.86.86,0,0,1,289,20h0a.89.89,0,0,1,.79.49L296.92,35l16,2.33a.9.9,0,0,1,.71.59.88.88,0,0,1-.23.9l-11.58,11.3,2.73,15.94a.89.89,0,0,1-.34.86A.92.92,0,0,1,303.7,67.1Z"/><path class="cls-2" d="M289,20.89l7.37,14.92L312.8,38.2,300.89,49.82l2.81,16.4L289,58.48l-14.73,7.74,2.81-16.4L265.14,38.2l16.47-2.39L289,20.89m0-1.75a1.77,1.77,0,0,0-1.57,1l-7,14.1-15.55,2.26a1.75,1.75,0,0,0-1,3l11.25,11-2.65,15.5a1.73,1.73,0,0,0,.69,1.71,1.78,1.78,0,0,0,1,.33,1.71,1.71,0,0,0,.82-.2L289,60.45l13.92,7.32a1.65,1.65,0,0,0,.81.2,1.78,1.78,0,0,0,1-.33,1.76,1.76,0,0,0,.7-1.71l-2.66-15.5,11.26-11a1.79,1.79,0,0,0,.44-1.8,1.76,1.76,0,0,0-1.41-1.19L297.5,34.21l-7-14.1a1.75,1.75,0,0,0-1.57-1Z"/></g></svg>