<svg xmlns="http://www.w3.org/2000/svg" xmlns:xlink="http://www.w3.org/1999/xlink" width="7.89in" height="2.37in" viewBox="0 0 568.08 170.98"><defs><style>.a{fill:#fff;}.b{fill:url(#a);}.c{fill:url(#b);}.d{fill:url(#c);}.e{fill:url(#d);}.f,.g{stroke:#fff;stroke-miterlimit:10;}.f{fill:url(#e);}.g{fill:url(#f);}.h{fill:url(#g);}.i{fill:url(#h);}.j{fill:url(#i);}.k{fill:url(#j);}.l{fill:url(#k);}.m{fill:url(#l);}.n{fill:url(#m);}.o{fill:url(#n);}.p{fill:none;}</style><linearGradient id="a" x1="46.42" y1="109.05" x2="56.94" y2="109.05" gradientUnits="userSpaceOnUse"><stop offset="0" stop-color="#23577a"/><stop offset="1" stop-color="#003462"/></linearGradient><linearGradient id="b" x1="114.2" y1="109.05" x2="124.72" y2="109.05" xlink:href="#a"/><linearGradient id="c" x1="124.23" y1="55.15" x2="94.36" y2="72.28" gradientUnits="userSpaceOnUse"><stop offset="0" stop-color="#004e74"/><stop offset="0" stop-color="#ffe18b"/><stop offset="1" stop-color="#faa533"/></linearGradient><linearGradient id="d" x1="85.93" y1="28.64" x2="48.08" y2="96.01" gradientUnits="userSpaceOnUse"><stop offset="0" stop-color="#5b2481"/><stop offset="0" stop-color="#5a2581"/><stop offset="0.28" stop-color="#3b4487"/><stop offset="0.54" stop-color="#245b8b"/><stop offset="0.78" stop-color="#16688d"/><stop offset="1" stop-color="#116d8e"/><stop offset="1"/></linearGradient><linearGradient id="e" x1="87.54" y1="36.22" x2="114.22" y2="112.51" gradientUnits="userSpaceOnUse"><stop offset="0" stop-color="#109ba5"/><stop offset="1" stop-color="#009fb7"/></linearGradient><linearGradient id="f" x1="32.89" y1="100.09" x2="89.31" y2="33.27" gradientUnits="userSpaceOnUse"><stop offset="0" stop-color="#23577a"/><stop offset="1" stop-color="#116d8e"/></linearGradient><linearGradient id="g" x1="79.9" y1="38.9" x2="106.58" y2="115.18" xlink:href="#e"/><linearGradient id="h" x1="45.84" y1="111.03" x2="102.27" y2="44.21" xlink:href="#f"/><linearGradient id="i" x1="75.41" y1="40.47" x2="102.1" y2="116.75" xlink:href="#e"/><linearGradient id="j" x1="48.38" y1="113.18" x2="104.81" y2="46.36" xlink:href="#f"/><linearGradient id="k" x1="77.47" y1="88.95" x2="98.46" y2="130.02" gradientUnits="userSpaceOnUse"><stop offset="0" stop-color="#b9dac5"/><stop offset="1" stop-color="#109ba5"/></linearGradient><linearGradient id="l" x1="85.72" y1="117.41" x2="85.34" y2="137.22" gradientUnits="userSpaceOnUse"><stop offset="0" stop-color="#004e74"/><stop offset="1" stop-color="#109ba5"/></linearGradient><linearGradient id="m" x1="86.97" y1="113.58" x2="88.83" y2="113.58" xlink:href="#a"/><linearGradient id="n" x1="84.98" y1="71.13" x2="84.98" y2="89.05" xlink:href="#a"/></defs><path class="a" d="M516.62,122.18h-1V114.5h-2.72v-.89h6.42v.89h-2.71Z"/><path class="a" d="M524.41,122.18l-2.9-7.59h0c.06.6.08,1.31.08,2.14v5.45h-.92v-8.57h1.5l2.72,7.07h0l2.74-7.07h1.49v8.57h-1v-5.52c0-.63,0-1.32.08-2.06h0l-2.93,7.58Z"/><path class="a" d="M164.06,94.07v28.11H150.27V51.55h23.06q10.44,0,16.39,5.51t5.94,15.31a17.78,17.78,0,0,1-2.47,9.54A17.38,17.38,0,0,1,186,88.3a13.53,13.53,0,0,1,7.84,6.11,21.47,21.47,0,0,1,2.41,10.68v5a30.79,30.79,0,0,0,.68,6.24,8.47,8.47,0,0,0,2.38,4.83v1H185a8,8,0,0,1-2.13-5.05,57.72,57.72,0,0,1-.44-7.13v-4.81q0-5.3-2.16-8.2a7.22,7.22,0,0,0-6.19-2.92Zm0-11h9.22c2.82,0,5-.85,6.41-2.57s2.19-4.16,2.19-7.33a12.4,12.4,0,0,0-2.19-7.72,7.49,7.49,0,0,0-6.36-2.86h-9.27Z"/><path class="a" d="M226.2,123.2q-9.9,0-15.73-6.51t-5.83-16.4V92.91q0-10.64,5.42-17.43t15-6.8q9.22,0,14.28,6.17t5,16.8v8.44h-26v.2a14.5,14.5,0,0,0,2.36,8.54,8.12,8.12,0,0,0,7.11,3.35,19.06,19.06,0,0,0,6.31-.87,34,34,0,0,0,5.78-2.92l3.49,8.79a20.7,20.7,0,0,1-7.26,4.32A28.27,28.27,0,0,1,226.2,123.2ZM225,79.7a5.11,5.11,0,0,0-4.85,3,19.52,19.52,0,0,0-1.75,8.14h12.38v-2a13.94,13.94,0,0,0-1.36-6.8A4.69,4.69,0,0,0,225,79.7Z"/><path class="a" d="M264.21,69.66l.53,6.69A15.58,15.58,0,0,1,270,70.68a13.23,13.23,0,0,1,7.23-2,11.63,11.63,0,0,1,6.94,2.12,13,13,0,0,1,4.52,6.43,16.33,16.33,0,0,1,5.24-6.31,12.73,12.73,0,0,1,7.47-2.24,11.89,11.89,0,0,1,10.27,5.37q3.76,5.36,3.76,16.38v31.75H301.59V90.4q0-6.08-1.31-8.39a4.38,4.38,0,0,0-4.08-2.31,5.71,5.71,0,0,0-3.54,1.17,8.89,8.89,0,0,0-2.58,3.21c0,.61.07,1.22.1,1.82s.05,1.22.05,1.87v34.41H276.49V90.4q0-6-1.33-8.36A4.46,4.46,0,0,0,271,79.7a6.14,6.14,0,0,0-3.37,1,8.31,8.31,0,0,0-2.55,2.65v38.88H251.34V69.66Z"/><path class="a" d="M322.8,92.71q0-10.58,5.61-17.3t15.7-6.73q10.09,0,15.73,6.73t5.63,17.3v6.51q0,10.68-5.63,17.33t-15.68,6.65q-10.14,0-15.75-6.65T322.8,99.22Zm13.74,6.49q0,6.08,1.7,9.53a6.05,6.05,0,0,0,5.92,3.45,6,6,0,0,0,5.8-3.48q1.73-3.47,1.73-9.5V92.68A21.7,21.7,0,0,0,350,83.23a6.6,6.6,0,0,0-11.7,0,21.77,21.77,0,0,0-1.72,9.43Z"/><path class="a" d="M389.16,56.6V69.66h7.28v10h-7.28V106a8.63,8.63,0,0,0,.92,4.59,2.91,2.91,0,0,0,2.53,1.39,14.27,14.27,0,0,0,2.13-.13,14.56,14.56,0,0,0,1.95-.41l1.06,10.49a28.26,28.26,0,0,1-4.17,1,32,32,0,0,1-4.51.29q-6.66,0-10.17-4.1t-3.52-13V79.66h-6.22v-10h6.22V56.6Z"/><path class="a" d="M424.65,123.2q-9.9,0-15.73-6.51t-5.83-16.4V92.91q0-10.64,5.42-17.43t15-6.8q9.22,0,14.28,6.17t5,16.8v8.44h-26v.2a14.5,14.5,0,0,0,2.36,8.54,8.12,8.12,0,0,0,7.11,3.35,19.06,19.06,0,0,0,6.31-.87,34,34,0,0,0,5.78-2.92l3.49,8.79a20.7,20.7,0,0,1-7.26,4.32A28.27,28.27,0,0,1,424.65,123.2Zm-1.17-43.5a5.11,5.11,0,0,0-4.85,3,19.52,19.52,0,0,0-1.75,8.14h12.38v-2a13.94,13.94,0,0,0-1.36-6.8A4.69,4.69,0,0,0,423.48,79.7Z"/><path class="a" d="M464.16,122.18H450.38V46.45h13.78Z"/><path class="a" d="M490.67,100.63l.1.53,7.67-31.5H513.2l-17.72,60.43a28.64,28.64,0,0,1-5.32,9.49q-3.33,3.81-10.17,3.81a13.6,13.6,0,0,1-3-.29c-.87-.19-2-.48-3.49-.87l1.6-10.29c.55.09.94.17,1.19.22a4.86,4.86,0,0,0,.8.07,6.07,6.07,0,0,0,4.54-1.58,9.13,9.13,0,0,0,2.2-4.15l1.22-3.88-15.49-53h14.81Z"/><polygon class="b" points="56.94 113.58 47.5 113.58 46.42 104.52 56.94 105.53 56.94 113.58"/><polygon class="c" points="114.2 113.58 123.64 113.58 124.72 104.52 114.2 105.53 114.2 113.58"/><path class="d" d="M102.37,34.4,101,33.81l-.43-.17a41.06,41.06,0,0,0-14.86-3,34.43,34.43,0,0,1,3.08,10.12c.07.4.12.81.17,1.22a45.63,45.63,0,0,1,.33,5.25c0,1.39,0,2.83-.13,4.34-.06,1-.16,2-.28,3.09q-.27,2.39-.75,5c-.21,1.15-.45,2.32-.72,3.52a109,109,0,0,1-3.35,11.61l-.53.48,36,29.2a84.79,84.79,0,0,0,5.22-12.32S138.08,50.32,102.37,34.4Z"/><path class="e" d="M84.05,74.76A109,109,0,0,0,87.4,63.15c.27-1.2.51-2.37.72-3.52q.48-2.57.75-5c.12-1.06.22-2.09.28-3.09.1-1.51.15-3,.13-4.34A45.63,45.63,0,0,0,89,42c0-.41-.1-.82-.17-1.22A34.43,34.43,0,0,0,85.7,30.66a40.09,40.09,0,0,0-11.34,1.49C31.29,45.88,46,92.12,46,92.12a84.41,84.41,0,0,0,5,12L83.52,75.24h0Z"/><path class="f" d="M88.78,40.78A34.43,34.43,0,0,0,85.7,30.66h0A34.43,34.43,0,0,1,88.78,40.78Z"/><path class="g" d="M88.78,40.78A34.43,34.43,0,0,0,85.7,30.66h0A34.43,34.43,0,0,1,88.78,40.78Z"/><path class="h" d="M88.12,59.63c-.21,1.15-.45,2.32-.72,3.52C87.67,62,87.91,60.78,88.12,59.63Z"/><path class="i" d="M88.12,59.63c-.21,1.15-.45,2.32-.72,3.52C87.67,62,87.91,60.78,88.12,59.63Z"/><path class="j" d="M87.4,63.15a109,109,0,0,1-3.35,11.61l-.53.48h0l.53-.48A109,109,0,0,0,87.4,63.15Z"/><path class="k" d="M87.4,63.15a109,109,0,0,1-3.35,11.61l-.53.48h0l.53-.48A109,109,0,0,0,87.4,63.15Z"/><path class="l" d="M83.52,75.24,51.08,104.11C57,115.63,65,125.59,71.8,132.89l8.34-9.78h10.5l8.41,9.71a131.45,131.45,0,0,0,20.48-28.38Z"/><path class="m" d="M80.14,123.11l-8.34,9.78a138.93,138.93,0,0,0,13.59,12.88,140.42,140.42,0,0,0,13.66-13l-8.41-9.71Z"/><rect class="a" x="79.83" y="104.52" width="11.15" height="18.59"/><circle class="n" cx="87.9" cy="113.58" r="0.93"/><circle class="a" cx="85.42" cy="70.41" r="15.32"/><polygon class="o" points="38.54 102.48 85.39 69.92 131.41 102.48 123.64 113.58 85.39 87.68 46.68 113.58 38.54 102.48"/><polygon class="a" points="68.11 43.67 68.7 44.86 70.01 45.05 69.06 45.98 69.29 47.29 68.11 46.67 66.94 47.29 67.17 45.98 66.22 45.05 67.53 44.86 68.11 43.67"/><polygon class="a" points="49.39 69.92 49.53 70.21 49.86 70.25 49.62 70.48 49.68 70.81 49.39 70.65 49.1 70.81 49.15 70.48 48.92 70.25 49.24 70.21 49.39 69.92"/><polygon class="a" points="55.37 81.13 55.85 82.11 56.94 82.27 56.15 83.03 56.34 84.11 55.37 83.6 54.4 84.11 54.59 83.03 53.8 82.27 54.88 82.11 55.37 81.13"/><polygon class="a" points="62.32 63.33 62.95 64.62 64.38 64.83 63.35 65.83 63.59 67.25 62.32 66.58 61.05 67.25 61.29 65.83 60.26 64.83 61.68 64.62 62.32 63.33"/><polygon class="a" points="58.51 50.79 58.87 51.52 59.68 51.64 59.09 52.21 59.23 53.02 58.51 52.63 57.78 53.02 57.92 52.21 57.33 51.64 58.14 51.52 58.51 50.79"/><polygon class="a" points="81.73 42.96 82.23 43.96 83.33 44.12 82.53 44.9 82.72 45.99 81.73 45.48 80.75 45.99 80.94 44.9 80.14 44.12 81.24 43.96 81.73 42.96"/><path class="p" d="M48.3,113.09h7.38c-.73-1.15-1.44-2.32-2.14-3.51Z"/><path class="p" d="M90.42,123.6h-10l-2.62,3.07-5.28,6.2a144.27,144.27,0,0,0,12.92,12.27l.76-.63c.68-.57,1.68-1.43,2.9-2.54,2.4-2.15,5.69-5.27,9.34-9.17l-7.12-8.21Z"/><path class="p" d="M85.25,69.42c.65-2.21,1.22-4.34,1.68-6.38.27-1.2.51-2.36.72-3.5s.4-2.39.55-3.54c0-.37-.08-.67-.08-.67,2.57-14.88-4.39-22.63-5.86-24.07a39.25,39.25,0,0,0-7.75,1.36c-12.68,4.05-20.25,10.9-24.69,18.54s-5.73,16.1-5.73,23.34A64.64,64.64,0,0,0,46.4,91.63c.06.23.1.34.1.34.39,1.18.82,2.35,1.26,3.51Z"/><path class="p" d="M89.44,41.94a46.6,46.6,0,0,1,.34,5.3h0v.49c0,1.25,0,2.53-.13,3.87-.07,1-.16,2.05-.29,3.12q-.27,2.4-.75,5-.31,1.72-.72,3.54c-.48,2.1-1.07,4.3-1.75,6.59l36.74,26c.5-1.28,1-2.57,1.41-3.87,0,0,0-.12.1-.34s.16-.55.27-1c.23-.87.53-2.12.83-3.69a66.15,66.15,0,0,0,1.21-12.47A47.4,47.4,0,0,0,122,53.07c-3.6-7.12-9.71-13.7-19.83-18.22h0l-1.36-.58-.43-.18a40.92,40.92,0,0,0-13.91-2.92,35.59,35.59,0,0,1,2.81,9.54C89.34,41.11,89.39,41.52,89.44,41.94Z"/><polygon class="p" points="123.33 97.36 122.51 96.78 85.84 70.84 85.39 70.52 84.79 70.94 48.14 96.41 47.31 96.99 39.24 102.59 46.8 112.91 46.92 112.83 47.84 112.22 53.04 108.73 53.86 108.19 56.45 106.45 57.43 105.8 85.4 87.09 113.72 106.26 114.7 106.93 116.83 108.37 117.64 108.92 123.25 112.72 123.52 112.9 124.36 111.7 130.73 102.6 123.33 97.36"/><path class="p" d="M114.7,108.12l-1-.67L85.39,88.27,57.43,107l-1,.65L54.36,109c.68,1.16,1.38,2.3,2.09,3.43l.4.62.09.14c.08.11.15.23.23.35l.26.4a142.44,142.44,0,0,0,14.36,18.17l8-9.36.15-.17h11l8.19,9.46a141,141,0,0,0,14.66-18.66c.33-.5.66-1,1-1.53.55-.88,1.09-1.77,1.63-2.67Z"/><path class="p" d="M115.11,113.09H122l-4.9-3.32C116.48,110.89,115.8,112,115.11,113.09Z"/><path class="a" d="M123.71,96.42c.54-1.37,1.05-2.75,1.51-4.15h0a64.48,64.48,0,0,0,2.46-17.78,48.47,48.47,0,0,0-4.79-21.86c-3.69-7.31-10-14.08-20.31-18.67h0c-.47-.22-.94-.41-1.4-.6l-.43-.18a41.86,41.86,0,0,0-14.73-3h-1.1a40.82,40.82,0,0,0-10.69,1.51h0c-12.89,4.11-20.7,11.14-25.25,19S43.11,67.15,43.11,74.5a64.45,64.45,0,0,0,2.46,17.77h0c.42,1.28.88,2.53,1.36,3.78l-9.08,6.31.3.41,8.42,11.48.26-.18h9.49A142.82,142.82,0,0,0,71.15,132.9h0l.3.32h0l.36.4h0a138.86,138.86,0,0,0,13.26,12.53l.3.25.31-.25A139,139,0,0,0,99,133.55h0l.37-.4.3-.32h0a141.4,141.4,0,0,0,14.76-18.76h9l.28.19.13-.19.22-.31,8-11.4ZM100.38,34.09l.43.18,1.36.58h0C112.3,39.37,118.41,46,122,53.07a47.4,47.4,0,0,1,4.69,21.42A66.15,66.15,0,0,1,125.49,87c-.3,1.57-.6,2.82-.83,3.69-.11.43-.2.76-.27,1s-.1.33-.1.34c-.43,1.3-.91,2.59-1.41,3.87l-36.74-26c.68-2.29,1.27-4.49,1.75-6.59q.4-1.82.72-3.54.48-2.58.75-5c.13-1.07.22-2.11.29-3.12.09-1.34.13-2.62.13-3.87v-.49h0a46.6,46.6,0,0,0-.34-5.3c0-.42-.1-.83-.16-1.23a35.59,35.59,0,0,0-2.81-9.54A40.92,40.92,0,0,1,100.38,34.09ZM46.5,92s0-.11-.1-.34A64.64,64.64,0,0,1,44.09,74.5c0-7.24,1.29-15.7,5.73-23.34s12-14.49,24.69-18.54a39.25,39.25,0,0,1,7.75-1.36c1.47,1.44,8.43,9.19,5.86,24.07,0,0,0,.3.08.67-.15,1.15-.33,2.33-.55,3.54s-.45,2.3-.72,3.5c-.46,2-1,4.17-1.68,6.38L47.76,95.48C47.32,94.32,46.89,93.15,46.5,92Zm1.8,21.12,5.24-3.51c.7,1.19,1.41,2.36,2.14,3.51ZM89.05,142c-1.22,1.11-2.22,2-2.9,2.54l-.76.63a144.27,144.27,0,0,1-12.92-12.27l5.28-6.2,2.62-3.07h10l.85,1,7.12,8.21C94.74,136.7,91.45,139.82,89.05,142Zm24.67-28.55a141,141,0,0,1-14.66,18.66l-8.19-9.46h-11l-.15.17-8,9.36A142.44,142.44,0,0,1,57.43,114l-.26-.4c-.08-.12-.15-.24-.23-.35l-.09-.14-.4-.62c-.71-1.13-1.41-2.27-2.09-3.43l2.09-1.41,1-.65,28-18.71,28.33,19.18,1,.67,1.63,1.1c-.54.9-1.08,1.79-1.63,2.67C114.38,112.41,114.05,112.92,113.72,113.42Zm1.39-.33c.69-1.09,1.37-2.2,2-3.32l4.9,3.32Zm8.41-.19-.27-.18-5.61-3.8-.81-.55-2.13-1.44-1-.67L85.4,87.09l-28,18.71-1,.65-2.59,1.74-.82.54-5.2,3.49-.92.61-.12.08L39.24,102.6,47.31,97l.83-.58L84.79,70.94l.6-.42.46.32,36.66,25.94.82.58,7.4,5.24-6.37,9.1Z"/></svg>